<svg width="64" height="64" viewBox="0 0 64 64" fill="none" xmlns="http://www.w3.org/2000/svg" role="img" aria-label="ListingWin mark">
  <path d="M18 18H10C10 28.5 15.5 36 24 37.5" stroke="#F2F4F8" stroke-width="5" stroke-linecap="round"/>
  <path d="M46 18H54C54 28.5 48.5 36 40 37.5" stroke="#F2F4F8" stroke-width="5" stroke-linecap="round"/>
  <path d="M21 12H43V28C43 36.2843 38.0751 43 32 43C25.9249 43 21 36.2843 21 28V12Z" fill="#F2F4F8"/>
  <path d="M26 17H38V27.5C38 33.299 35.3137 38 32 38C28.6863 38 26 33.299 26 27.5V17Z" fill="#3563E0"/>
  <path d="M29 43H35V52H29V43Z" fill="#F2F4F8"/>
  <path d="M21 52H43V57H21V52Z" fill="#F2F4F8"/>
  <path d="M17 57H47V61H17V57Z" fill="#F2F4F8"/>
</svg>
